<svg id="Layer_1" data-name="Layer 1" xmlns="http://www.w3.org/2000/svg" viewBox="0 0 586.38 223.91"><defs><style>.cls-1,.cls-2{fill:#fff;}.cls-2{font-size:47.77px;font-family:MyriadPro-Regular, Myriad Pro;}.cls-3{letter-spacing:0.01em;}.cls-4{letter-spacing:-0.02em;}.cls-5{letter-spacing:0em;}.cls-6{letter-spacing:0em;}.cls-7{letter-spacing:0em;}</style></defs><path class="cls-1" d="M465,487.27v22.12H293.62V487.27ZM310.87,497.58h-.28c-.14-1.38-.31-2.76-.4-4.14,0-.6-.23-.9-.85-.86a3.84,3.84,0,0,0-1,0c-.27.1-.65.42-.65.64,0,3.49,0,7,0,10.47,0,.56.27.68.76.68s.81-.09.78-.67,0-1,0-1.54v-5l.24,0c.09.49.21,1,.26,1.48.16,1.66.28,3.33.47,5,0,.26.31.48.48.72.22-.19.55-.35.64-.59a4.78,4.78,0,0,0,.15-1.21c.17-1.86.34-3.71.5-5.57a2.38,2.38,0,0,1,.26,1.2c0,1.78,0,3.56,0,5.33,0,.6.14.86.8.87s.9-.24.89-.9q0-5,0-10.06c0-.58-.17-1-.8-.85s-1.63-.58-1.76.73S311,496.16,310.87,497.58Zm83-.36h.3c.22,2.16.42,4.32.67,6.47,0,.25.32.47.5.7.2-.2.53-.36.59-.6a8.55,8.55,0,0,0,.2-1.52c.16-1.75.33-3.5.49-5.24h.27v1.4c0,1.72,0,3.43,0,5.14,0,.71.28.85.92.84s.66-.54.67-1v-9.34c0-1.53,0-1.46-1.53-1.5-1.11,0-1,.75-1.05,1.37-.14,1.22-.2,2.44-.3,3.66h-.26c-.08-.5-.17-1-.21-1.48-.09-.92-.14-1.84-.24-2.76-.12-1.18-1.05-.66-1.67-.76s-.88.12-.87.78c0,3.42,0,6.85,0,10.27,0,.58.22.76.79.76s.76-.23.76-.79c0-1.64,0-3.28,0-4.93Zm-90.22,1.31c0-1.68,0-3.36,0-5,0-.63-.15-.92-.85-.93s-1,.25-1,1a23.79,23.79,0,0,1,0,2.67c0,.22-.32.42-.49.63-.11-.22-.33-.43-.33-.65,0-.92-.06-1.85,0-2.77,0-.75-.35-.84-.95-.83s-1,0-1,.79c0,3.43,0,6.85,0,10.28,0,.81.47.73,1,.76s1-.1.93-.83c-.05-1.13,0-2.26,0-3.39,0-.3.27-.58.41-.87a2.79,2.79,0,0,1,.43.91c0,1,0,2,0,3.08,0,.63,0,1.11.89,1.12s.93-.38.92-1.06C303.59,501.75,303.61,500.14,303.61,498.53Zm101.45-.13v3.69c0,2.33,0,2.33,2.31,2.3,1.72,0,2.26-.55,2.27-2.28,0-2,0-4,0-5.94,0-3.31-.44-3.71-3.74-3.6-.68,0-.87.26-.86.91C405.08,495.12,405.06,496.76,405.06,498.4Zm21,.11v3.79c0,2.1,0,2.1,2.12,2.09,1.92,0,2.44-.52,2.46-2.43s0-3.84,0-5.75c0-3.32-.46-3.74-3.73-3.64-.68,0-.89.25-.87.9C426,495.15,426,496.83,426,498.51Zm-97.61-1.13-.31,0c-.29-1.32-.6-2.64-.85-4a.92.92,0,0,0-1.11-.89c-.79.05-.61.59-.62,1v9.75c0,.49-.14,1,.71,1.05s.8-.49.8-1.06c0-1.31,0-2.61,0-3.92l.28,0c.26,1.29.52,2.58.79,3.87s.4,1.33,1.81.9c0-3.52,0-7.08,0-10.63,0-.57,0-1-.79-1s-.72.52-.72,1Zm110.22,2h.31c.26,1.26.53,2.52.79,3.78s.33,1.37,1.73,1c0-.25.06-.52.06-.79v-9.85c0-.54.05-1-.75-1s-.77.46-.76,1c0,1.28,0,2.55,0,3.82l-.27,0-.84-3.74c-.28-1.2-.42-1.27-1.69-.9v11.51c1.41.21,1.42.21,1.42-1.09Zm-54.41-.91c0-1.61,0-3.22,0-4.82,0-.62,0-1.13-.87-1.13s-.94.41-.92,1.08c0,.85,0,1.71,0,2.56,0,.21-.26.41-.39.62-.17-.21-.48-.4-.49-.62-.06-.92-.05-1.85,0-2.77,0-.6-.17-.87-.81-.86s-1,.06-1,.81q0,5.13,0,10.26c0,.7.36.75.9.76s.9-.11.88-.78c0-1.2,0-2.4,0-3.6,0-.24.26-.47.4-.71.17.24.47.48.48.72.06,1.16.06,2.33,0,3.49,0,.67.21.89.88.89s.93-.18.91-.87C384.19,501.86,384.21,500.19,384.22,498.51Zm-18.06,4.24-.44-.06c-.05-.59-.14-1.18-.15-1.77,0-2.4,0-4.79,0-7.19,0-.68,0-1.17-1-1.17s-.87.5-.86,1.12c0,1.95,0,3.9,0,5.85,0,.82,0,1.65,0,2.47a2.45,2.45,0,0,0,2.24,2.6c1.2,0,2.08-.78,2.16-2.36.14-2.87.1-5.74.17-8.62,0-.69-.11-1.05-.94-1.07s-1,.38-1,1.12c0,2.67,0,5.34,0,8A4.69,4.69,0,0,1,366.16,502.75Zm35.77,0-.42,0a11.76,11.76,0,0,1-.2-1.45c0-1.77,0-3.55,0-5.33,0-.86,0-1.71,0-2.57,0-.66-.33-.79-.9-.79s-.91.07-.9.77c0,2.9,0,5.81,0,8.72a2.37,2.37,0,0,0,2.28,2.54c1.2,0,2.06-.9,2.11-2.42.1-2.83.09-5.67.16-8.51,0-.73-.11-1.12-1-1.12s-.91.43-.91,1.09c0,2.67,0,5.34,0,8A5.51,5.51,0,0,1,401.93,502.75Zm-47.76-3.32h.29c.09.31.19.63.25.95.23,1.13.46,2.27.67,3.41.13.66.63.71,1.09.58a1,1,0,0,0,.58-.71c0-3.45,0-6.91,0-10.36a.7.7,0,0,0-1.12-.61,1.31,1.31,0,0,0-.28.91c0,1.27,0,2.55,0,3.82l-.26,0a3.47,3.47,0,0,1-.2-.5c-.27-1.2-.59-2.39-.78-3.6-.12-.82-.61-.76-1.17-.75-.73,0-.57.55-.57,1,0,3.32,0,6.64,0,10,0,.54,0,.9.75.9s.78-.34.77-.89C354.16,502.16,354.17,500.79,354.17,499.43Zm77.4-1h-.09c.09,1.46.08,2.94.31,4.37a2,2,0,0,0,2.13,1.83,2.1,2.1,0,0,0,2-2c.16-1.9.18-3.82.2-5.72a14.3,14.3,0,0,0-.23-2.85,2.1,2.1,0,0,0-4.1-.16,5.62,5.62,0,0,0-.23,1.41C431.55,496.34,431.57,497.37,431.57,498.39Zm-92.6,6c.61-.22,1.58.57,1.6-.68.05-3.49,0-7,0-10.48a.87.87,0,0,0-.56-.61c-.59-.15-1,.05-.93.79,0,1.33,0,2.67,0,4l-.29,0c-.08-.28-.18-.55-.25-.84-.26-1.16-.47-2.34-.82-3.48-.07-.25-.64-.44-1-.48-.16,0-.52.42-.52.66,0,3.45,0,6.91,0,10.37,0,.51.19.86.71.7a1.32,1.32,0,0,0,.7-.73,2.82,2.82,0,0,0,0-1v-3.2l.32,0Zm84.49-7-.34,0c-.31-1.36-.67-2.7-.89-4.07-.12-.79-.57-.8-1.16-.79s-.58.53-.59.95v9.65c0,1.33.1,1.39,1.55,1v-4.76a1.59,1.59,0,0,1,.5.93l.66,3.42c.12.65.62.72,1.09.58a1,1,0,0,0,.58-.7c0-3.46,0-6.91,0-10.37a.71.71,0,0,0-1.12-.61,1.32,1.32,0,0,0-.29.9C423.44,494.86,423.46,496.14,423.46,497.42Zm-63.24-3.27h.49c.06.6.08,1.19.18,1.78.05.29.17.73.37.81,1.07.43,1.62,0,1.49-1.18-.05-.38-.11-.75-.16-1.12a2.19,2.19,0,0,0-2.22-2.1,2.1,2.1,0,0,0-2.12,2.07c-.09,2.67-.08,5.34,0,8a2,2,0,0,0,1.43,2c.52.11,1.16-.33,1.7-.5l1,.42a3.5,3.5,0,0,0,.37-1c.05-1.4,0-2.8,0-4.21,0-.32-.18-.9-.33-.92a4.44,4.44,0,0,0-1.78.13c-.13,0-.07.8,0,1.23.07.89.18,1.78.23,2.67a.54.54,0,0,1-.35.41c-.13,0-.33-.18-.43-.33a1,1,0,0,1-.11-.49c0-2.26,0-4.52,0-6.77A4,4,0,0,1,360.22,494.15Zm-37.81,8.58-.48,0a10.15,10.15,0,0,1-.19-1.44c0-2.64,0-5.27,0-7.9,0-.66-.31-.8-.89-.8s-.9.08-.9.77c0,2.94,0,5.89.08,8.82a2.84,2.84,0,0,0,1,2,2.63,2.63,0,0,0,2.07.21,2,2,0,0,0,1.24-2c0-2.94,0-5.89.07-8.83,0-.76-.36-.88-1-.89s-.8.4-.79,1q0,4,0,8A6.27,6.27,0,0,1,322.41,502.73Zm92.72,1.66c0-.4,0-.67,0-.93-.32-3.16-.66-6.31-.95-9.48-.12-1.38-.08-1.4-1.51-1.4a4.34,4.34,0,0,1-.51,0c-.7-.09-.93.21-1,.91-.21,2.69-.5,5.37-.75,8.06-.08.9-.12,1.81-.18,2.7,1.75.32,1.75.32,1.9-1.22,0,0,0-.08,0-.1l.63-.75a7,7,0,0,1,.48.77,1.39,1.39,0,0,1,0,.61c-.06.61.17.9.81.83C414.39,504.36,414.7,504.39,415.13,504.39Zm-36.11-.1c0-.35,0-.66,0-1-.31-3-.6-6-1-9.05-.21-1.77-.26-1.74-2.08-1.71-.61,0-.9.15-.94.86-.14,2.1-.39,4.21-.57,6.31-.13,1.52-.22,3-.33,4.55,1.69.21,1.67.2,2-1.33.06-.28.37-.52.56-.77.15.25.4.5.43.77C377.26,504.51,377.24,504.51,379,504.29Zm-43.5-.05c-.34-3.33-.63-6.62-1-9.9-.21-1.84-.28-1.81-2.13-1.77-.66,0-.86.24-.9.9-.15,2.07-.38,4.14-.56,6.21-.13,1.55-.23,3.1-.34,4.64,1.71.14,1.69.13,2-1.3,0-.3.33-.56.5-.84.17.28.46.54.49.83C333.69,504.51,333.73,504.56,335.52,504.24Zm54.31,0c-.19-2.12-.38-4.25-.59-6.38-.16-1.53-.33-3.06-.52-4.58a.9.9,0,0,0-.34-.65c-1.42-.67-2.53.09-2.65,1.66-.19,2.69-.44,5.37-.67,8.06l-.15,1.88c1.81.32,1.8.31,1.95-1.25,0-.28.33-.55.51-.82.2.27.52.52.57.81C388.19,504.53,388.16,504.53,389.83,504.26Zm64.73,0c1.81.31,1.86.25,2-1.05,0-.35.34-.68.52-1,.2.34.4.68.58,1a.8.8,0,0,1,0,.41c0,.56.18.84.77.77.33,0,.66,0,1.1-.05-.35-3.61-.68-7.13-1.06-10.65-.13-1.21-.19-1.16-2.06-1.12-1,0-.9.74-1,1.34-.15,1.42-.26,2.85-.38,4.28C454.88,500.19,454.72,502.19,454.56,504.25Zm-8-2.72.2.08c0,.14,0,.28,0,.41.06,1.64.93,2.62,2.29,2.58s2-1,2.12-2.64a5.5,5.5,0,0,0-2.1-5.15,1.86,1.86,0,0,1-.64-2.11c.05-.2.27-.35.41-.51a5.58,5.58,0,0,1,.39.6.92.92,0,0,1,0,.41c-.06.67.32.77.89.78s.88-.21.82-.83c0-.31,0-.62,0-.92a2.11,2.11,0,0,0-4.18-.06c-.25,2,0,3.88,1.74,5.25a2.34,2.34,0,0,1,.92,2.36c-.06.33-.37.61-.57.92-.13-.32-.28-.62-.38-.95a1.73,1.73,0,0,1,0-.51c0-1-.37-1.31-1.23-.95C446.91,500.42,446.8,501.1,446.58,501.53Zm-73.16-5.63a11.84,11.84,0,0,0,0-1.89,1.91,1.91,0,0,0-2.21-1.67,1.88,1.88,0,0,0-1.92,1.74,5,5,0,0,0,1.64,5.26,2.45,2.45,0,0,1,1,2.23,4.21,4.21,0,0,1-.48,1.12,11.16,11.16,0,0,1-.57-1,1.54,1.54,0,0,1,0-.61c0-.59-.17-.85-.82-.85s-.83.29-.79.87,0,1.1.07,1.64a2.17,2.17,0,0,0,2.11,1.88,2,2,0,0,0,2.09-1.71c.39-2.14.29-4.17-1.58-5.7a4.23,4.23,0,0,1-.77-.81,1.57,1.57,0,0,1,.4-2.33l.31,1.85Zm-30,2.52c0,1.67,0,3.35,0,5,0,.68.17,1,.92,1s1-.26,1-1c0-1,0-2,0-3.08,0-.6.18-.85.82-.86a1.43,1.43,0,0,0,1.49-1.59c0-.68,0-1.37,0-2.05,0-3-.35-3.37-3.36-3.24h-.11c-.59-.05-.76.25-.75.8C343.42,495.06,343.41,496.74,343.41,498.42Zm-26.66,1.18c2.15-.36,2.29-.52,2.34-2.6,0-.41,0-.83,0-1.24,0-3-.4-3.31-3.43-3.19-.61,0-.84.21-.83.84,0,3.39,0,6.77,0,10.16,0,.73.32.84.93.83s1,0,1-.86C316.7,502.25,316.75,501,316.75,499.6Zm34.89-.62c0-.7.49-1.69-1-1.88-.19,0-.31-1.12-.32-1.72,0-.21.42-.59.67-.61.54,0,.69-.26.71-.77.06-1.39,0-1.42-1.37-1.42a4.28,4.28,0,0,1-.62,0c-.91-.13-1.25.2-1.23,1.17.07,2.77,0,5.54,0,8.31,0,2.36,0,2.36,2.39,2.33.47,0,1.06.12,1-.66-.07-.61.44-1.56-.84-1.54-.21,0-.6-.15-.61-.26a7.53,7.53,0,0,1,0-2.22C350.44,499.44,351.1,499.28,351.64,499Zm94.14.08c0-.82.42-1.8-1-2-.18,0-.29-1.14-.29-1.74,0-.21.46-.4.7-.62s.6-.42.64-.67c.18-1.4.09-1.48-1.37-1.48a7.48,7.48,0,0,1-.82,0c-.79-.1-1,.26-1,1,0,2.8,0,5.61,0,8.41,0,2.44,0,2.44,2.42,2.4.49,0,1.05.07.94-.69-.09-.57.45-1.47-.77-1.51-.25,0-.71-.22-.72-.38a7.57,7.57,0,0,1,0-2.23C444.6,499.36,445.28,499.26,445.78,499.06Zm-28.18-.56c0,1.67,0,3.35,0,5,0,.67.2.9.88.89s1-.14,1-.85q0-5.07,0-10.14c0-.71-.36-.84-1-.85s-.88.25-.86.9C417.62,495.15,417.6,496.82,417.6,498.5Zm34.51,0c0,1.68,0,3.36,0,5,0,.68.22.89.89.89s.91-.21.9-.88c0-3.36,0-6.71,0-10.07,0-.67-.23-.89-.9-.89s-.9.22-.89.89C452.13,495.14,452.11,496.81,452.11,498.49Zm-147.38,0c0,1.67,0,3.35,0,5,0,.69.27.86.91.87s.88-.24.88-.9c0-3.35,0-6.71,0-10.06,0-.69-.26-.88-.9-.88s-.9.25-.89.9C304.75,495.15,304.73,496.83,304.73,498.51Z" transform="translate(-293.62 -291.94)"/><path class="cls-1" d="M406.64,474.87H380.51v-1.08q-.09-43.77-.17-87.54a5.62,5.62,0,0,1,.38-2,13.47,13.47,0,0,1,8-7.64,34.3,34.3,0,0,1,14.32-2.1,6.21,6.21,0,0,0,4.77-1.59,63.52,63.52,0,0,0,5-4.84,5,5,0,0,1,3.25-1.87,15.1,15.1,0,0,1,6.63.61c-1,.79-1.85,1.48-2.69,2.22-1.78,1.55-3.66,3-4.76,5.18-.13.27-.51.43-.8.58a20.9,20.9,0,0,0-6.68,5.24l1.09,1.15a22,22,0,0,1,7.2-5.24,1,1,0,0,0,.43-.41c1.11-2.65,3.36-4.26,5.45-6,.76-.64,1.6-1.18,2.36-1.81,1.18-1,1-1.88-.39-2.42a22.5,22.5,0,0,0-2.38-.66c-.33-4.27,1.62-12.42,6.14-15.31-.33,1.27-.65,2.4-.9,3.55a6.11,6.11,0,0,0-.2,1.8c.33,5.8,0,11.51-2.26,16.95a20.15,20.15,0,0,1-10.8,11.27c-2.06.89-4.28,1.41-6.4,2.17a26.6,26.6,0,0,0-7.58,4,12.7,12.7,0,0,0-5,10.31,84.87,84.87,0,0,0,2.63,20c1.91,8.33,4,16.61,5.9,24.95a156.22,156.22,0,0,1,3.26,24.09C406.39,470.58,406.51,472.69,406.64,474.87Z" transform="translate(-293.62 -291.94)"/><path class="cls-1" d="M331,349.47c4.9,3.9,5.83,9.38,6.29,15.13-.91.24-1.75.4-2.53.69-1.49.56-1.62,1.47-.38,2.48,1.54,1.25,3.2,2.38,4.6,3.77a38.37,38.37,0,0,1,3.15,4,1.71,1.71,0,0,0,.5.47,21.79,21.79,0,0,1,7.14,5.22L351,380a25.94,25.94,0,0,0-3.39-3,24,24,0,0,1-6.4-5.54,32.46,32.46,0,0,0-4.36-3.88l-.89-.74a13.09,13.09,0,0,1,8.36-.12,2.23,2.23,0,0,1,.92.76,27.48,27.48,0,0,0,7,6.42,4.44,4.44,0,0,0,2.19.59c5.09-.08,10.14.13,15,1.94,3.95,1.48,7,3.94,8.58,8a4.83,4.83,0,0,1,.32,1.69q-.07,43.86-.18,87.74v1h-26a7.57,7.57,0,0,1,0-.81,180.17,180.17,0,0,1,4.49-33.83c1.8-7.55,3.69-15.08,5.41-22.65a77.64,77.64,0,0,0,2.22-18.1,12.69,12.69,0,0,0-5.1-10.38,28.92,28.92,0,0,0-10.4-5c-9.86-2.66-14.59-9.62-16.13-19.14-.53-3.24-.28-6.61-.49-9.92a35.38,35.38,0,0,0-.7-4.2C331.23,350.37,331.09,349.92,331,349.47Z" transform="translate(-293.62 -291.94)"/><path class="cls-1" d="M330.88,485.31V477h96.84v8.36Z" transform="translate(-293.62 -291.94)"/><path class="cls-1" d="M342.73,364.4h-3.66c-.22-1.64-.38-3.3-.69-4.93a20,20,0,0,0-7.16-12.33,1.42,1.42,0,0,1-.57-.78c-.19-1.83-.31-3.67-.45-5.51,2.11.07,4,1.84,4.82,4.26,1.5,4.43,3,8.87,4.68,13.24A65.68,65.68,0,0,0,342.73,364.4Z" transform="translate(-293.62 -291.94)"/><path class="cls-1" d="M428.42,340.71c-.15,2-.27,3.77-.45,5.57a1.4,1.4,0,0,1-.53.81c-4.92,3.94-7.07,9.26-7.65,15.35-.06.64-.13,1.28-.2,2h-3.76a2.91,2.91,0,0,1,.12-.35c3.52-5.78,5.71-12.1,7.53-18.57A6.18,6.18,0,0,1,428.42,340.71Z" transform="translate(-293.62 -291.94)"/><path class="cls-1" d="M345.39,494.36c1,.38.77,1.17.76,1.77s.22,1.27-.76,1.52Z" transform="translate(-293.62 -291.94)"/><path class="cls-1" d="M316.85,494.4c.94.2.81.9.8,1.46s.23,1.43-.8,1.82Z" transform="translate(-293.62 -291.94)"/><path class="cls-1" d="M420.55,329.56a41.61,41.61,0,0,0-46.68-34.22c-13.47,1.86-23.74,8.81-30.81,20.43a37.14,37.14,0,0,0-4.17,9.84l-.66,2.61a41,41,0,0,0-.44,15,41.42,41.42,0,0,0,18.49,28.85,3.56,3.56,0,0,0,1.52.47c2.07.22,4.17.29,6.23.59,3.87.55,7.68,1.53,10.68,4.12a7.1,7.1,0,0,0,5.61,1.68,4.46,4.46,0,0,0,.82,0,3.2,3.2,0,0,0,1.25-.53,19.49,19.49,0,0,1,6.41-3.8,40.36,40.36,0,0,1,11.89-2,3.7,3.7,0,0,0,1.88-.63C417.16,361.45,423.48,347.27,420.55,329.56Zm-25.85,6.31.21,1.55,1-.52.29.17-.64,1.29.72.83h-1.55c.14.67.27,1.29.4,1.88A3.37,3.37,0,0,1,394.7,335.87Zm-.91,9.75c-1.32.85-1.68.76-2.27-.54A1.66,1.66,0,0,1,393.79,345.62Zm-1.9-3v.31h-3.12v-.42C389.8,342.11,390.85,342.87,391.89,342.63Zm-11.2-1.27c.13-.46.35-.9.44-1.37.38-2,1.3-2.57,3.23-2.21a27.36,27.36,0,0,0,3.12.37,2.29,2.29,0,0,0,1.14-.28c.59-.3,1.13-.69,1.76-1.08a2.8,2.8,0,0,1-3.44,2.49,28.35,28.35,0,0,0-4.42-.24c-.75,0-1.1,1.3-.55,1.95a9.79,9.79,0,0,0,1,.87c1.41-1,4-1.49,4.36-.9l-3.08,1.93,2.73,4.43c-.82,1.4-.91,1.44-2.21.78-.14-.07-.33-.16-.38-.28-.33-1-.61-2-1-2.95-.07-.22-.32-.55-.45-.54s-.61.28-.61.44c0,1.42,0,2.85,0,4.52a5.55,5.55,0,0,1-1.63-.06c-.14,0-.1-.85,0-1.3.11-.82.24-1.61-.61-2.17a.73.73,0,0,1-.31-.59C380,343.89,380.35,342.62,380.69,341.36ZM387.91,354c-1.91.22-3.81.48-5.73.64-.31,0-.66-.37-1-.57a3.75,3.75,0,0,1,1.24-.51c.87,0,1.74.21,2.61.2s1.87-.18,2.81-.28Zm-26.73-10c.27,0,.56.27,1.06.55-.44.33-.69.66-.88.63s-.52-.36-.78-.55C360.78,344.37,361,344,361.18,344Zm-3.09-2.16c.25,0,.54.53.74.86s.42.88.63,1.32l-.33.32L357,342.5C357.38,342.22,357.73,341.81,358.09,341.81Zm-1.33,7.4c-.68.13-1.66.3-2.08-.06-2.52-2.22-5.25-4.2-6.74-7.47-.92-2-2.63-3.66-4-5.49-.16-.22-.24-.51-.41-.72a13.59,13.59,0,0,0-1.43-1.69,10.56,10.56,0,0,1-2.75-3.21l.24-.35c.32.08.65.14,1,.25s.51.38.75.36c1.92-.15,2.73,1.28,3.88,2.41a27.85,27.85,0,0,0,4.14,2.9c1.13.75,2.34,1.4,3.41,2.24.42.34.55,1.05.79,1.6.07.18,0,.53.12.55,1.27.32,1.27,1.4,1.61,2.35.13.37.92.46,1.27.8a2.19,2.19,0,0,1,.73,1.27,19,19,0,0,1-.18,3C357.06,348.4,357,349.17,356.76,349.21Zm15.89,5-5.37-.42a5.89,5.89,0,0,1-.71-.13c-2.19-.45-4.38-.87-6.57-1.35-.36-.08-.67-.43-1-.57-.57-.22-1.17-.36-1.79-.55l1.07-1.44a16.91,16.91,0,0,1,2.54.16,4.72,4.72,0,0,1,1.78.85c.93.64,3.33.64,3.89,0,.68.13,1.33.26,2,.37s1.62,0,1.54,1.2c0,.14.54.5.74.44C372.32,352.22,372.69,353.05,372.65,354.22Zm2.09.34-1.43-1c.84,0,1.73-1,2.54.27Zm1.32-12.78a3.66,3.66,0,0,0-.66,2.43c0,1.55-1.38,1.36-2.16,1.92s-.91-.25-1.37-.45a5.89,5.89,0,0,0-2.65-.36c-.71,0-1.4.39-2-.26a.8.8,0,0,0-.45-.14c-.47-.05-1.19.1-1.36-.14a10.32,10.32,0,0,1-.84-2.11,4.18,4.18,0,0,0-.62-1.33,3.85,3.85,0,0,1-.56-4.6,1,1,0,0,1,1-.2c1.14.72,1.82.46,2.36-.76.15-.35.74-.54,1.15-.76s1.16-.35,1.5-.73a16,16,0,0,1,4.2-3.31,4,4,0,0,0,1.11-1.26,1.73,1.73,0,0,1,2.74-.53c.81.57,1.68,1.07,2.52,1.6l-1.11,1.64c-1.79.64-2.06,1.53-.68,3.5.18.26.43.48.62.74s.56.83.84,1.25a5.84,5.84,0,0,1-1.4.34c-.75,0-1.1.38-1.05,1A2.77,2.77,0,0,1,376.06,341.78Zm1.4,12.93a2.55,2.55,0,0,1-.9-.16s0-.48.06-.51a2.59,2.59,0,0,1,1-.18,3.36,3.36,0,0,1,.89.33l-.64-.75.17-.28,2,1-.14.29C379.06,354.54,378.26,354.65,377.46,354.71Zm2.2,1.33c1-1.17,1.94-.84,3.41.53C381.58,357.47,381,355.68,379.66,356ZM393,354.33c-1.92.93-3.82,1.88-6,3,.78-2.18,3.7-3.65,6.42-3.59l.42.42A4.39,4.39,0,0,0,393,354.33ZM395.3,346l-.7-1.49a26.41,26.41,0,0,1,4.12.07c.49.08.87.95,1.24,1.5.07.1-.12.56-.23.58a1,1,0,0,1-.75-.18C397.93,345.48,396.72,345.7,395.3,346Zm4.59,7.71-.39-.27,1.4-2.11.46.32Zm5-2.41c.28-1,.51-1.79.74-2.58l.35.08C406.45,350.39,406.31,350.85,404.88,351.34ZM416.12,350c0,1.42,0,2.84,0,4.74-1.16-1.74-2.39-1.42-3.71-1-.43.14-1-.2-1.54-.32a12.14,12.14,0,0,1,.45-1.19c.26-.53.91-1.12.81-1.55A3.23,3.23,0,0,0,410.2,348c-.73-.25-1.5-.37-2.22-.62-1-.36-2-.87-3-1.16a10.9,10.9,0,0,0-2.33-.14l-1.06-1.86c.57-.11,1.07-.18,1.56-.31s.93-.3,1.4-.45v-.44c-2.45,1.33-3.73-.77-5.74-1.4,1.11-.49,1.9-.88,2.72-1.17a2.77,2.77,0,0,1,1.25,0c.3,0,.57.3.88.38,1.33.37,1.84.92,1.71,2.28a1.64,1.64,0,0,0,1.1,1.8c.82.4,1.17-.32,1.68-.79.83-.77,1.85-2,2.67-1.95a22.7,22.7,0,0,1,5.27,1.72c.09,0,.11.37.11.57C416.18,346.31,416.14,348.13,416.12,350Z" transform="translate(-293.62 -291.94)"/><rect class="cls-1" x="206.38" y="4.73" width="4" height="214.44"/><text class="cls-2" transform="translate(242.23 39.99)"><tspan class="cls-3">H</tspan><tspan x="31.62" y="0">impunan</tspan><tspan class="cls-4" x="0" y="57.33">P</tspan><tspan x="24.22" y="57.33">engusaha </tspan><tspan class="cls-5" x="229.3" y="57.33">M</tspan><tspan x="267.85" y="57.33">uda</tspan><tspan class="cls-3"><tspan x="0" y="114.65">I</tspan><tspan class="cls-6" x="11.9" y="114.65">ndonesia</tspan></tspan><tspan x="0" y="171.98">Kota </tspan><tspan class="cls-7" x="101.08" y="171.98">C</tspan><tspan x="128.65" y="171.98">imahi</tspan></text></svg>